<svg width="693.66669" height="244.18668" xmlns="http://www.w3.org/2000/svg">

 <g>
  <title>background</title>
  <rect fill="none" id="canvas_background" height="402" width="582" y="-1" x="-1"/>
 </g>
 <g>
  <title>Layer 1</title>
  <path fill="#d7172b" fill-rule="evenodd" id="path12" d="m493.727995,143.712138c28.238666,-6.7176 57.005333,-11.633867 86.049332,-12.962933c19.389333,-0.762 39.028,-0.070933 57.973333,4.513467c11.524,2.924 22.992,7.285467 32.257333,14.9172c3.338667,2.452133 4.82,6.453733 6.717333,9.9708c5.956,11.469333 12.034667,22.867733 17.934666,34.3772c-22.076,0 -44.166666,-0.055733 -66.257333,0.027067c-5.553333,-10.649467 -10.885333,-21.410933 -16.286667,-32.117733c-1.261333,-3.213067 -5.110667,-3.531733 -7.990667,-4.362533c-18.033333,-3.5744 -36.537333,-3.019733 -54.818666,-2.480133c-55.357333,2.937467 -110.493332,12.021333 -163.594665,28.088c6.621333,-4.348933 13.933333,-7.437067 21.08,-10.748c27.990666,-12.409333 57.227999,-21.923866 86.935999,-29.2224"/>
  <path fill="#ffffff" fill-rule="evenodd" id="path14" d="m545.830661,95.186672c-10.134667,1.836 -20.222666,3.94 -30.276,6.186667c8.74,-18.046666 18.198666,-35.732 27.006666,-53.750666c1.090667,-0.02 2.18,-0.033333 3.269333,-0.041333c2.886667,-0.021333 5.773333,0.001333 8.669333,0.082667c7.009333,14.417333 14.542667,28.572 21.605333,42.974666c-10.144,1.172 -20.233333,2.728 -30.274666,4.548zm123.333332,11.56c-6.026667,-9.888 -17.950666,-13.172 -28.434666,-15.913333c-2.132,-2.618667 -3.337333,-5.830667 -4.944,-8.753333c-13.821333,-26.384 -27.7,-52.725333 -41.466666,-79.137333c-16.162667,0 -32.325333,-0.017333 -48.488,-0.022667c-13.545333,-0.005333 -27.089333,-0.002667 -40.636,0.022667c-1.965333,-0.346667 -2.658667,1.758667 -3.461333,3.046667c-19.308,36.521333 -38.793333,72.961333 -58.114666,109.482266c-1.468,2.701067 -2.728,5.54 -4.584,8.0192c-3.324,1.911467 -7.105333,2.8532 -10.705333,4.098933c-0.970667,-12.200933 -2.092,-25.663066 -10.776,-35.1364c-7.949333,-9.072 -20.178666,-12.394667 -31.701333,-14.002667c-19.28,-2.34 -38.74,-2.34 -58.114666,-3.324c-20.304,-0.926667 -40.649333,-1.245333 -60.925333,-2.810667c-4.750667,-0.498667 -10.692,-0.901333 -13.282667,-5.594667c-2.645333,-5.305333 -2.396,-12.216 0.984,-17.146666c3.918667,-4.308 10.289333,-4.182667 15.649333,-4.778667c5.166667,-0.316 10.337333,-0.529333 15.509333,-0.678667l1.732,0l0,-0.042667c15.726667,-0.405333 31.472,-0.18 47.202666,0.042667c8.074667,0.498667 16.646666,-0.221333 24.209333,3.158667c5.789333,2.949333 5.346667,10.248 5.761333,15.789333c18.933333,0.122667 37.865333,0.082667 56.811999,0.026667c-0.028,-13.614667 0.5,-28.073333 -5.956,-40.497333c-4.570667,-8.946667 -14.028,-13.890667 -23.281333,-16.646666c-18.654666,-5.388 -38.266666,-5.318667 -57.503999,-5.830667c-18.717333,-0.213333 -37.434666,-0.161333 -56.138666,0.256l-102.846666,0l-63.343333,0l-9.038133,0l-21.64,0l-36.7032,0l-43.938,43.744l74.402666,0l-21.285466,149.255732l21.639066,0l21.2864,-149.255732l9.038533,0l-21.2848,149.255732l63.342266,0l21.285333,-149.255732l26.702666,0c-1.08,7.744 -1.154667,15.690667 -0.973333,23.393333c0.622667,13.628 2.908,28.876 13.572,38.502666c10.969333,9.4864 26.273333,10.427467 40.068,11.549867c34.970666,1.524533 69.941333,3.199467 104.925332,4.237467c5.569333,0.665733 12.84,0.5 16.08,5.9704c2.673333,5.512 2.244,12.270267 0.069333,17.894266c-2.658667,6.356267 -10.58,6.453067 -16.425333,7.047867c-28.406666,0.444267 -56.825333,0.859867 -85.218666,-0.1916c-5.165333,-0.416133 -11.190667,-1.012 -14.625333,-5.417733c-3.268,-4.638533 -3.421333,-10.538533 -3.697333,-15.994267c-18.864,-0.041733 -37.713333,-0.084933 -56.575999,-0.028667c0.124,13.405733 -0.541333,27.380266 4.376,40.109866c5.054667,12.118267 17.742666,18.862533 30.068,21.314666c25.538666,5.276 51.783999,4.141067 77.697333,4.819733c4.82,-0.278667 10.305333,1.246933 14.404,-2.050533c24.236,-15.926533 50.427999,-28.821333 77.779999,-38.488c47.944,-17.376 97.489332,-31.519733 148.179999,-37.778133c8.014667,-0.988 16.056,-1.782267 24.126666,-2.359333c24.029333,-1.398933 48.613333,-0.816667 71.825333,6.2052c9.416,2.685867 18.182666,7.189067 26.313333,12.5896c3.976,-8.864667 6.496,-19.847466 1.068,-28.697333"/>
  <path fill="#ffffff" fill-rule="nonzero" id="path16" d="m62.597333,226.641337l3.878133,0c1.5948,0.0292 2.798,-0.316133 3.608933,-1.040133c0.811467,-0.719733 1.218267,-1.637467 1.218267,-2.750533c0,-1.337467 -0.512533,-2.290533 -1.533333,-2.852c-1.023467,-0.564133 -2.331333,-0.846933 -3.925067,-0.846933l-3.246933,0l0,7.4896zm6.1344,-13.307733c4.088533,0.030133 7.006267,0.841067 8.750533,2.435867c1.7432,1.5932 2.616667,3.955733 2.616667,7.0812c0,3.2172 -0.888,5.526667 -2.661467,6.924c-1.774933,1.398453 -3.729067,2.249493 -5.864533,2.547933c-0.4208,0.059893 -0.8412,0.106773 -1.262533,0.137507c-0.421867,0.02916 -0.842133,0.043747 -1.263467,0.043747l-6.4496,0l0,10.690625l-8.480133,0l0,-29.860878l14.614533,0"/>
  <path fill="#ffffff" fill-rule="nonzero" id="path18" d="m92.727599,226.008004l3.203067,0c0.15,0.0292 0.293333,0.046933 0.427733,0.046933c0.135333,0 0.262933,0 0.383733,0c1.0224,-0.061467 1.954267,-0.2964 2.797467,-0.7c0.841067,-0.4068 1.262533,-1.241733 1.262533,-2.504267c0,-1.188 -0.4292,-2.049467 -1.286,-2.583733c-0.8568,-0.5324 -1.947333,-0.799067 -3.270267,-0.799067l-3.518267,0l0,6.540133zm4.826,-12.6744c0.090667,0.030133 0.1876,0.046267 0.293333,0.046267c0.1052,0 0.218133,0 0.338533,0c2.856267,0.059867 5.4724,0.5932 7.848933,1.6c2.374933,1.0084 3.562933,3.058933 3.562933,6.157333c0,2.4708 -0.706667,4.256267 -2.119733,5.357333c-1.414533,1.098933 -3.112533,1.816133 -5.096933,2.1452c2.916267,0.1188 4.736533,1.1084 5.4568,2.96048c0.722933,1.85468 1.188533,3.88124 1.399467,6.08124c0.0292,0.059907 0.045333,0.127613 0.045333,0.20104c0,0.076053 0,0.160427 0,0.24792c0.089067,0.905733 0.202667,1.80156 0.337467,2.691147c0.135467,0.888027 0.338667,1.710413 0.609467,2.462503l-9.110933,-0.044271c-0.210933,-0.483859 -0.354667,-1.079685 -0.428667,-1.789059c-0.076,-0.709373 -0.1292,-1.47188 -0.157867,-2.286987c0,-0.15156 -0.008267,-0.308853 -0.023333,-0.47448c-0.0152,-0.166667 -0.0224,-0.32656 -0.0224,-0.47708c-0.1204,-1.569787 -0.398533,-3.018747 -0.8344,-4.34688c-0.435467,-1.32916 -1.451067,-1.992187 -3.0448,-1.992187l-3.8792,0l0,11.366672l-8.480267,0l0,-29.906192l13.306267,0"/>
  <path fill="#ffffff" fill-rule="nonzero" id="path20" d="m122.812532,228.26267c0,2.497467 0.578133,4.761493 1.735867,6.789107c1.1584,2.03072 2.9552,3.045307 5.390133,3.045307c2.135467,0 3.759867,-0.813013 4.872133,-2.435933c1.112,-1.6224 1.669333,-4.07188 1.669333,-7.35048c0,-2.588 -0.526667,-4.857333 -1.578667,-6.812c-1.054,-1.954667 -2.812267,-2.931733 -5.277867,-2.931733c-2.406267,0 -4.0896,0.983733 -5.051067,2.953067c-0.964,1.969333 -1.550533,4.142667 -1.759867,6.5188c0,0.059867 0,0.112933 0,0.158267c0,0.044267 0,0.0828 0,0.1136l0,-0.048zm-8.7964,0.3172c0.1808,-4.030667 1.255733,-7.6744 3.226,-10.938533c1.9688,-3.262533 6.2016,-4.8932 12.6964,-4.8932c0.151067,0 0.3088,0 0.474533,0c0.164,0 0.338,0 0.5176,0c3.578667,0.148933 6.864,1.2692 9.857333,3.359867c2.992,2.089067 4.486667,6.157333 4.486667,12.202667c0,0.7812 -0.045333,1.609333 -0.134667,2.480133c-0.090667,0.871907 -0.24,1.743787 -0.450667,2.615653c-0.632,2.617707 -2.008,5.015107 -4.128,7.192187c-2.12,2.182813 -5.556,3.271881 -10.306133,3.271881c-6.315067,0 -10.531733,-1.517188 -12.652533,-4.555735c-2.119867,-3.035933 -3.3,-6.389573 -3.540667,-10.058787c0,-0.090667 -0.007333,-0.188133 -0.0224,-0.292267c-0.016133,-0.106267 -0.023467,-0.2172 -0.023467,-0.338533l0,-0.045333"/>
  <path fill="#ffffff" fill-rule="nonzero" id="path22" d="m171.121332,213.333604l0,6.134267l-12.676,0l0,6.857333l11.682667,0l0,5.8172l-11.682667,0l0,11.052079l-8.48,0l0,-29.860878l21.156,0"/>
  <path fill="#ffffff" fill-rule="nonzero" id="path24" d="m198.906665,213.333604l0,6.134267l-14.3,0l0,5.909467l13.306667,0l0,6.134853l-13.306667,0l0,5.862507l14.3,0l0,5.819785l-22.778666,0l0,-29.860878l22.778666,0"/>
  <path fill="#ffffff" fill-rule="nonzero" id="path26" d="m203.279998,233.542923l8.389333,0c0,0.238533 0.014667,0.495827 0.045333,0.765107c0.029333,0.271867 0.090667,0.542707 0.181333,0.810413c0.209333,0.664053 0.645333,1.27344 1.306667,1.82708c0.662667,0.559893 1.684,0.834373 3.068,0.834373c1.442667,0 2.556,-0.291667 3.337333,-0.87708c0.781333,-0.588027 1.173333,-1.241667 1.173333,-1.963027c0,-0.14896 -0.016,-0.293227 -0.045333,-0.4276c-0.030667,-0.137493 -0.074667,-0.264067 -0.134667,-0.385413c-0.241333,-0.630733 -0.745333,-1.216147 -1.512,-1.757293c-0.766667,-0.542707 -1.826667,-0.917707 -3.18,-1.12812c-4.54,-0.96256 -7.637333,-2.066693 -9.292,-3.31616c-1.653333,-1.2464 -2.556,-3.178667 -2.706667,-5.795867c0,-0.059867 -0.006667,-0.104133 -0.021333,-0.1348c-0.016,-0.0292 -0.022667,-0.072933 -0.022667,-0.136c0,-0.028133 -0.016,-0.074533 -0.045333,-0.1344c0,-2.916133 1.262667,-5.142667 3.788,-6.674933c2.526667,-1.5344 5.518667,-2.301067 8.977333,-2.301067c4.870667,0.148933 8.089333,1.1052 9.652,2.864c1.562667,1.76 2.345333,3.931867 2.345333,6.5172l-8.478667,-0.044267c0,-0.931733 -0.317333,-1.7 -0.948,-2.302533c-0.632,-0.6 -1.594667,-0.901067 -2.886667,-0.901067c-1.113333,0 -1.993333,0.265067 -2.638667,0.790667c-0.646667,0.526533 -0.985333,1.102533 -1.016,1.735867c0,0.0308 0,0.0532 0,0.067733c0,0.016133 0,0.037467 0,0.0672c0,0.030133 0,0.075467 0,0.136933c0.061333,0.6308 0.406667,1.2172 1.038667,1.756267c0.630667,0.543733 1.502667,0.876 2.616,0.991733c0.632,0.121333 1.292,0.242667 1.984,0.362933c0.692,0.121333 1.398667,0.271867 2.12,0.452133c2.285333,0.5396 4.390667,1.4276 6.314667,2.660933c1.925333,1.234933 2.888,3.23228 2.888,5.998947c0,3.54896 -1.272,6.095827 -3.812,7.645307c-2.541333,1.547921 -5.6,2.322401 -9.178667,2.322401c-4.390667,0 -7.668,-0.871876 -9.833333,-2.615628c-2.165333,-1.744267 -3.324,-4.29896 -3.473333,-7.668227l0,-0.043747"/>
  <path fill="#ffffff" fill-rule="nonzero" id="path28" d="m234.042664,233.542923l8.389333,0c0,0.238533 0.014667,0.495827 0.045333,0.765107c0.029333,0.271867 0.090667,0.542707 0.181333,0.810413c0.209333,0.664053 0.644,1.27344 1.306667,1.82708c0.662667,0.559893 1.684,0.834373 3.066667,0.834373c1.444,0 2.556,-0.291667 3.338667,-0.87708c0.781333,-0.588027 1.173333,-1.241667 1.173333,-1.963027c0,-0.14896 -0.016,-0.293227 -0.045333,-0.4276c-0.032,-0.137493 -0.074667,-0.264067 -0.136,-0.385413c-0.24,-0.630733 -0.744,-1.216147 -1.510667,-1.757293c-0.766667,-0.542707 -1.828,-0.917707 -3.18,-1.12812c-4.54,-0.96256 -7.637333,-2.066693 -9.292,-3.31616c-1.654667,-1.2464 -2.556,-3.178667 -2.706667,-5.795867c0,-0.059867 -0.006667,-0.104133 -0.021333,-0.1348c-0.016,-0.0292 -0.022667,-0.072933 -0.022667,-0.136c0,-0.028133 -0.016,-0.074533 -0.045333,-0.1344c0,-2.916133 1.262667,-5.142667 3.788,-6.674933c2.526667,-1.5344 5.517333,-2.301067 8.977333,-2.301067c4.870667,0.148933 8.089333,1.1052 9.652,2.864c1.562667,1.76 2.345333,3.931867 2.345333,6.5172l-8.48,-0.044267c0,-0.931733 -0.316,-1.7 -0.946667,-2.302533c-0.632,-0.6 -1.594667,-0.901067 -2.888,-0.901067c-1.112,0 -1.992,0.265067 -2.637333,0.790667c-0.648,0.526533 -0.985333,1.102533 -1.016,1.735867c0,0.0308 0,0.0532 0,0.067733c0,0.016133 0,0.037467 0,0.0672c0,0.030133 0,0.075467 0,0.136933c0.06,0.6308 0.406667,1.2172 1.037333,1.756267c0.632,0.543733 1.504,0.876 2.616,0.991733c0.632,0.121333 1.293333,0.242667 1.985333,0.362933c0.692,0.121333 1.398667,0.271867 2.12,0.452133c2.284,0.5396 4.390667,1.4276 6.314667,2.660933c1.925333,1.234933 2.886667,3.23228 2.886667,5.998947c0,3.54896 -1.270667,6.095827 -3.812,7.645307c-2.54,1.547921 -5.598667,2.322401 -9.177333,2.322401c-4.390667,0 -7.668,-0.871876 -9.833333,-2.615628c-2.165333,-1.744267 -3.324,-4.29896 -3.473333,-7.668227l0,-0.043747"/>
  <path fill="#ffffff" fill-rule="nonzero" id="path30" d="m274.006664,213.333604l0,29.860878l-8.481333,0l0,-29.860878l8.481333,0"/>
  <path fill="#ffffff" fill-rule="nonzero" id="path32" d="m287.22133,228.26267c0,2.497467 0.578667,4.761493 1.736,6.789107c1.158667,2.03072 2.954667,3.045307 5.390667,3.045307c2.134667,0 3.758667,-0.813013 4.872,-2.435933c1.112,-1.6224 1.669333,-4.07188 1.669333,-7.35048c0,-2.588 -0.528,-4.857333 -1.578667,-6.812c-1.053333,-1.954667 -2.812,-2.931733 -5.278667,-2.931733c-2.405333,0 -4.089333,0.983733 -5.050667,2.953067c-0.964,1.969333 -1.550667,4.142667 -1.76,6.5188c0,0.059867 0,0.112933 0,0.158267c0,0.044267 0,0.0828 0,0.1136l0,-0.048zm-8.796,0.3172c0.181333,-4.030667 1.256,-7.6744 3.226667,-10.938533c1.968,-3.262533 6.201333,-4.8932 12.696,-4.8932c0.150667,0 0.308,0 0.474667,0c0.164,0 0.337333,0 0.517333,0c3.578667,0.148933 6.864,1.2692 9.856,3.359867c2.992,2.089067 4.488,6.157333 4.488,12.202667c0,0.7812 -0.045333,1.609333 -0.134667,2.480133c-0.090667,0.871907 -0.241333,1.743787 -0.450667,2.615653c-0.632,2.617707 -2.008,5.015107 -4.128,7.192187c-2.12,2.182813 -5.556,3.271881 -10.306667,3.271881c-6.314667,0 -10.532,-1.517188 -12.652,-4.555735c-2.12,-3.035933 -3.3,-6.389573 -3.541333,-10.058787c0,-0.090667 -0.006667,-0.188133 -0.022667,-0.292267c-0.016,-0.106267 -0.022667,-0.2172 -0.022667,-0.338533l0,-0.045333"/>
  <path fill="#ffffff" fill-rule="nonzero" id="path34" d="m325.742663,213.333604l10.102667,22.102546l0,-22.102546l7.486667,0l0,29.860878l-11.772,0l-10.102667,-22.419812l0,22.419812l-7.398667,0l0,-29.860878l11.684,0"/>
  <path fill="#ffffff" fill-rule="nonzero" id="path36" d="m362.63733,219.46787l-3.878667,12.04432l7.442667,0l-3.564,-12.04432zm5.593333,-6.134267l11.682667,29.860878l-9.426667,0l-1.94,-5.457292l-11.682667,0l-2.029333,5.457292l-8.705333,0l11.998667,-29.860878l10.102667,0"/>
  <path fill="#ffffff" fill-rule="nonzero" id="path38" d="m392.135996,213.378804l0,23.725053l13.306667,0l0,6.135939l-21.785333,0l0,-29.860992l8.478667,0"/>
  <path fill="#ffffff" fill-rule="nonzero" id="path40" d="m429.979996,233.542923l8.389333,0c0,0.238533 0.014667,0.495827 0.045333,0.765107c0.030667,0.271867 0.090667,0.542707 0.18,0.810413c0.210667,0.664053 0.646667,1.27344 1.309333,1.82708c0.661333,0.559893 1.682667,0.834373 3.065333,0.834373c1.444,0 2.556,-0.291667 3.338667,-0.87708c0.781333,-0.588027 1.173333,-1.241667 1.173333,-1.963027c0,-0.14896 -0.016,-0.293227 -0.045333,-0.4276c-0.030667,-0.137493 -0.074667,-0.264067 -0.136,-0.385413c-0.24,-0.630733 -0.742667,-1.216147 -1.510667,-1.757293c-0.766667,-0.542707 -1.826667,-0.917707 -3.18,-1.12812c-4.54,-0.96256 -7.638667,-2.066693 -9.292,-3.31616c-1.653333,-1.2464 -2.556,-3.178667 -2.706667,-5.795867c0,-0.059867 -0.006667,-0.104133 -0.022667,-0.1348c-0.013333,-0.0292 -0.02,-0.072933 -0.02,-0.136c0,-0.028133 -0.017333,-0.074533 -0.046667,-0.1344c0,-2.916133 1.262667,-5.142667 3.788,-6.674933c2.526667,-1.5344 5.518667,-2.301067 8.977333,-2.301067c4.870667,0.148933 8.088,1.1052 9.652,2.864c1.562667,1.76 2.345333,3.931867 2.345333,6.5172l-8.48,-0.044267c0,-0.931733 -0.316,-1.7 -0.946667,-2.302533c-0.630667,-0.6 -1.594667,-0.901067 -2.888,-0.901067c-1.112,0 -1.992,0.265067 -2.637333,0.790667c-0.646667,0.526533 -0.985333,1.102533 -1.016,1.735867c0,0.0308 0,0.0532 0,0.067733c0,0.016133 0,0.037467 0,0.0672c0,0.030133 0,0.075467 0,0.136933c0.06,0.6308 0.408,1.2172 1.038667,1.756267c0.630667,0.543733 1.502667,0.876 2.614667,0.991733c0.632,0.121333 1.293333,0.242667 1.985333,0.362933c0.692,0.121333 1.4,0.271867 2.121333,0.452133c2.282667,0.5396 4.389333,1.4276 6.314667,2.660933c1.924,1.234933 2.885333,3.23228 2.885333,5.998947c0,3.54896 -1.269333,6.095827 -3.810667,7.645307c-2.541333,1.547921 -5.601333,2.322401 -9.178667,2.322401c-4.390667,0 -7.668,-0.871876 -9.833333,-2.615628c-2.165333,-1.744267 -3.322667,-4.29896 -3.473333,-7.668227l0,-0.043747"/>
  <path fill="#ffffff" fill-rule="nonzero" id="path42" d="m469.177329,228.26267c0,2.497467 0.577333,4.761493 1.736,6.789107c1.158667,2.03072 2.954667,3.045307 5.389333,3.045307c2.136,0 3.76,-0.813013 4.873333,-2.435933c1.112,-1.6224 1.669333,-4.07188 1.669333,-7.35048c0,-2.588 -0.528,-4.857333 -1.58,-6.812c-1.053333,-1.954667 -2.810667,-2.931733 -5.277333,-2.931733c-2.406667,0 -4.089333,0.983733 -5.052,2.953067c-0.962667,1.969333 -1.549333,4.142667 -1.758667,6.5188c0,0.059867 0,0.112933 0,0.158267c0,0.044267 0,0.0828 0,0.1136l0,-0.048zm-8.796,0.3172c0.181333,-4.030667 1.254667,-7.6744 3.225333,-10.938533c1.969333,-3.262533 6.201333,-4.8932 12.696,-4.8932c0.152,0 0.309333,0 0.474667,0c0.165333,0 0.338667,0 0.518667,0c3.578667,0.148933 6.864,1.2692 9.856,3.359867c2.992,2.089067 4.486667,6.157333 4.486667,12.202667c0,0.7812 -0.044,1.609333 -0.133333,2.480133c-0.090667,0.871907 -0.241333,1.743787 -0.450667,2.615653c-0.632,2.617707 -2.008,5.015107 -4.128,7.192187c-2.121333,2.182813 -5.556,3.271881 -10.306667,3.271881c-6.316,0 -10.532,-1.517188 -12.653333,-4.555735c-2.118667,-3.035933 -3.298667,-6.389573 -3.54,-10.058787c0,-0.090667 -0.008,-0.188133 -0.021333,-0.292267c-0.017333,-0.106267 -0.024,-0.2172 -0.024,-0.338533l0,-0.045333"/>
  <path fill="#ffffff" fill-rule="nonzero" id="path44" d="m504.809328,213.333604l0,23.726506l13.308,0l0,6.134372l-21.786666,0l0,-29.860878l8.478667,0"/>
  <path fill="#ffffff" fill-rule="nonzero" id="path46" d="m531.061328,213.333604l0,17.547853c0,2.134373 0.444,3.87188 1.330667,5.209373c0.886667,1.336987 2.382667,2.006253 4.488,2.006253c2.466667,0 4.112,-0.682293 4.938667,-2.05312c0.826667,-1.367707 1.241333,-3.1948 1.241333,-5.480227l0,-17.230133l8.478667,0l0,18.493173c0,3.609373 -1.142667,6.570307 -3.426667,8.886453c-2.286667,2.316148 -6.029333,3.47344 -11.232,3.47344c-4.390667,0 -7.870667,-1.143751 -10.441333,-3.42812c-2.572,-2.283853 -3.857333,-5.14376 -3.857333,-8.56928l0,-18.855666l8.48,0"/>
  <path fill="#ffffff" fill-rule="nonzero" id="path48" d="m581.850661,213.333604l0,6.134267l-9.473333,0l0,23.726612l-8.118667,0l0,-23.726612l-9.382667,0l0,-6.134267l26.974666,0"/>
  <path fill="#ffffff" fill-rule="nonzero" id="path50" d="m593.487994,213.333604l0,29.860878l-8.48,0l0,-29.860878l8.48,0"/>
  <path fill="#ffffff" fill-rule="nonzero" id="path52" d="m606.702661,228.26267c0,2.497467 0.58,4.761493 1.737333,6.789107c1.157333,2.03072 2.954667,3.045307 5.390667,3.045307c2.134667,0 3.758667,-0.813013 4.870667,-2.435933c1.112,-1.6224 1.669333,-4.07188 1.669333,-7.35048c0,-2.588 -0.526667,-4.857333 -1.577333,-6.812c-1.053333,-1.954667 -2.813333,-2.931733 -5.277333,-2.931733c-2.408,0 -4.090667,0.983733 -5.052,2.953067c-0.964,1.969333 -1.550667,4.142667 -1.761333,6.5188c0,0.059867 0,0.112933 0,0.158267c0,0.044267 0,0.0828 0,0.1136l0,-0.048zm-8.794667,0.3172c0.18,-4.030667 1.254667,-7.6744 3.225333,-10.938533c1.968,-3.262533 6.202667,-4.8932 12.697333,-4.8932c0.149333,0 0.306667,0 0.473333,0c0.164,0 0.338667,0 0.518667,0c3.578667,0.148933 6.864,1.2692 9.857333,3.359867c2.990667,2.089067 4.486667,6.157333 4.486667,12.202667c0,0.7812 -0.045333,1.609333 -0.136,2.480133c-0.089333,0.871907 -0.24,1.743787 -0.450667,2.615653c-0.630667,2.617707 -2.006667,5.015107 -4.126667,7.192187c-2.12,2.182813 -5.556,3.271881 -10.306667,3.271881c-6.314667,0 -10.532,-1.517188 -12.652,-4.555735c-2.121333,-3.035933 -3.301333,-6.389573 -3.541333,-10.058787c0,-0.090667 -0.006667,-0.188133 -0.022667,-0.292267c-0.016,-0.106267 -0.022667,-0.2172 -0.022667,-0.338533l0,-0.045333"/>
  <path fill="#ffffff" fill-rule="nonzero" id="path54" d="m645.223993,213.333604l10.104,22.102546l0,-22.102546l7.486667,0l0,29.860878l-11.772,0l-10.104,-22.419812l0,22.419812l-7.397333,0l0,-29.860878l11.682667,0"/>
  <path fill="#ffffff" fill-rule="nonzero" id="path56" d="m667.551993,233.542923l8.388,0c0,0.238533 0.016,0.495827 0.045333,0.765107c0.030667,0.271867 0.090667,0.542707 0.181333,0.810413c0.209333,0.664053 0.645333,1.27344 1.306667,1.82708c0.661333,0.559893 1.685333,0.834373 3.068,0.834373c1.442667,0 2.556,-0.291667 3.338667,-0.87708c0.781333,-0.588027 1.173333,-1.241667 1.173333,-1.963027c0,-0.14896 -0.017333,-0.293227 -0.045333,-0.4276c-0.032,-0.137493 -0.076,-0.264067 -0.136,-0.385413c-0.241333,-0.630733 -0.744,-1.216147 -1.512,-1.757293c-0.766667,-0.542707 -1.826667,-0.917707 -3.178667,-1.12812c-4.541333,-0.96256 -7.638667,-2.066693 -9.292,-3.31616c-1.654667,-1.2464 -2.556,-3.178667 -2.706667,-5.795867c0,-0.059867 -0.008,-0.104133 -0.022667,-0.1348c-0.016,-0.0292 -0.022667,-0.072933 -0.022667,-0.136c0,-0.028133 -0.014667,-0.074533 -0.045333,-0.1344c0,-2.916133 1.262667,-5.142667 3.789333,-6.674933c2.525333,-1.5344 5.517333,-2.301067 8.976,-2.301067c4.872,0.148933 8.089333,1.1052 9.653333,2.864c1.562667,1.76 2.344,3.931867 2.344,6.5172l-8.478667,-0.044267c0,-0.931733 -0.316,-1.7 -0.948,-2.302533c-0.630667,-0.6 -1.594667,-0.901067 -2.886667,-0.901067c-1.113333,0 -1.993333,0.265067 -2.638667,0.790667c-0.646667,0.526533 -0.985333,1.102533 -1.014667,1.735867c0,0.0308 0,0.0532 0,0.067733c0,0.016133 0,0.037467 0,0.0672c0,0.030133 0,0.075467 0,0.136933c0.06,0.6308 0.406667,1.2172 1.036,1.756267c0.633333,0.543733 1.504,0.876 2.617333,0.991733c0.632,0.121333 1.292,0.242667 1.984,0.362933c0.692,0.121333 1.398667,0.271867 2.12,0.452133c2.285333,0.5396 4.390667,1.4276 6.316,2.660933c1.924,1.234933 2.886667,3.23228 2.886667,5.998947c0,3.54896 -1.272,6.095827 -3.812,7.645307c-2.541333,1.547921 -5.6,2.322401 -9.178667,2.322401c-4.392,0 -7.668,-0.871876 -9.833333,-2.615628c-2.165333,-1.744267 -3.324,-4.29896 -3.472,-7.668227l0,-0.043747"/>
 </g>
</svg>