<?xml version="1.0" encoding="UTF-8" standalone="no"?>
<!-- Created with Inkscape (http://www.inkscape.org/) -->

<svg
   version="1.1"
   id="svg2"
   width="693.66669"
   height="244.18668"
   viewBox="0 0 693.66669 244.18668"
   sodipodi:docname="LogoTSA.eps"
   xmlns:inkscape="http://www.inkscape.org/namespaces/inkscape"
   xmlns:sodipodi="http://sodipodi.sourceforge.net/DTD/sodipodi-0.dtd"
   xmlns="http://www.w3.org/2000/svg"
   xmlns:svg="http://www.w3.org/2000/svg">
  <defs
     id="defs6" />
  <sodipodi:namedview
     id="namedview4"
     pagecolor="#ffffff"
     bordercolor="#000000"
     borderopacity="0.25"
     inkscape:showpageshadow="2"
     inkscape:pageopacity="0.0"
     inkscape:pagecheckerboard="0"
     inkscape:deskcolor="#d1d1d1" />
  <g
     id="g8"
     inkscape:groupmode="layer"
     inkscape:label="ink_ext_XXXXXX"
     transform="matrix(1.3333333,0,0,-1.3333333,0,244.18667)">
    <g
       id="g10"
       transform="scale(0.1)">
      <path
         d="m 3695.46,753.559 c 211.79,50.382 427.54,87.254 645.37,97.222 145.42,5.715 292.71,0.532 434.8,-33.851 86.43,-21.93 172.44,-54.641 241.93,-111.879 25.04,-18.391 36.15,-48.403 50.38,-74.781 44.67,-86.02 90.26,-171.508 134.51,-257.829 -165.57,0 -331.25,0.418 -496.93,-0.203 -41.65,79.871 -81.64,160.582 -122.15,240.883 -9.46,24.098 -38.33,26.488 -59.93,32.719 -135.25,26.808 -274.03,22.648 -411.14,18.601 -415.18,-22.031 -828.7,-90.16 -1226.96,-210.66 49.66,32.617 104.5,55.778 158.1,80.61 209.93,93.07 429.21,164.429 652.02,219.168"
         style="fill:#d7172b;fill-opacity:1;fill-rule:evenodd;stroke:none"
         id="path12" />
      <path
         d="m 4086.23,1117.5 c -76.01,-13.77 -151.67,-29.55 -227.07,-46.4 65.55,135.35 136.49,267.99 202.55,403.13 8.18,0.15 16.35,0.25 24.52,0.31 21.65,0.16 43.3,-0.01 65.02,-0.62 52.57,-108.13 109.07,-214.29 162.04,-322.31 -76.08,-8.79 -151.75,-20.46 -227.06,-34.11 z m 925,-86.7 c -45.2,74.16 -134.63,98.79 -213.26,119.35 -15.99,19.64 -25.03,43.73 -37.08,65.65 -103.66,197.88 -207.75,395.44 -311,593.53 -121.22,0 -242.44,0.13 -363.66,0.17 -101.59,0.04 -203.17,0.02 -304.77,-0.17 -14.74,2.6 -19.94,-13.19 -25.96,-22.85 -144.81,-273.91 -290.95,-547.21 -435.86,-821.117 -11.01,-20.258 -20.46,-41.55 -34.38,-60.144 -24.93,-14.336 -53.29,-21.399 -80.29,-30.742 -7.28,91.507 -15.69,192.473 -80.82,263.523 -59.62,68.04 -151.34,92.96 -237.76,105.02 -144.6,17.55 -290.55,17.55 -435.86,24.93 -152.28,6.95 -304.87,9.34 -456.94,21.08 -35.63,3.74 -80.19,6.76 -99.62,41.96 -19.84,39.79 -17.97,91.62 7.38,128.6 29.39,32.31 77.17,31.37 117.37,35.84 38.75,2.37 77.53,3.97 116.32,5.09 h 12.99 v 0.32 c 117.95,3.04 236.04,1.35 354.02,-0.32 60.56,-3.74 124.85,1.66 181.57,-23.69 43.42,-22.12 40.1,-76.86 43.21,-118.42 142,-0.92 283.99,-0.62 426.09,-0.2 -0.21,102.11 3.75,210.55 -44.67,303.73 -34.28,67.1 -105.21,104.18 -174.61,124.85 -139.91,40.41 -287,39.89 -431.28,43.73 -140.38,1.6 -280.76,1.21 -421.04,-1.92 H 1309.97 834.895 767.109 604.809 329.535 L 0,1500.52 H 558.02 L 398.379,381.102 H 560.672 L 720.32,1500.52 h 67.789 L 628.473,381.102 h 475.067 l 159.64,1119.418 h 200.27 c -8.1,-58.08 -8.66,-117.68 -7.3,-175.45 4.67,-102.21 21.81,-216.57 101.79,-288.77 82.27,-71.148 197.05,-78.206 300.51,-86.624 262.28,-11.434 524.56,-23.996 786.94,-31.781 41.77,-4.993 96.3,-3.75 120.6,-44.778 20.05,-41.34 16.83,-92.027 0.52,-134.207 -19.94,-47.672 -79.35,-48.398 -123.19,-52.859 -213.05,-3.332 -426.19,-6.449 -639.14,1.437 -38.74,3.121 -83.93,7.59 -109.69,40.633 -24.51,34.789 -25.66,79.039 -27.73,119.957 -141.48,0.313 -282.85,0.637 -424.32,0.215 0.93,-100.543 -4.06,-205.352 32.82,-300.824 37.91,-90.887 133.07,-141.469 225.51,-159.86 191.54,-39.57 388.38,-31.058 582.73,-36.148 36.15,2.09 77.29,-9.352 108.03,15.379 181.77,119.449 378.21,216.16 583.35,288.66 359.58,130.32 731.17,236.398 1111.35,283.336 60.11,7.41 120.42,13.367 180.95,17.695 180.22,10.492 364.6,6.125 538.69,-46.539 70.62,-20.144 136.37,-53.918 197.35,-94.422 29.82,66.485 48.72,148.856 8.01,215.23"
         style="fill:#393536;fill-opacity:1;fill-rule:evenodd;stroke:none"
         id="path14" />
      <path
         d="m 461.98,131.59 h 29.086 c 11.961,-0.219 20.985,2.371 27.067,7.801 6.086,5.398 9.137,12.281 9.137,20.629 0,10.031 -3.844,17.179 -11.5,21.39 -7.676,4.231 -17.485,6.352 -29.438,6.352 H 461.98 Z m 46.008,99.808 c 30.664,-0.226 52.547,-6.308 65.629,-18.269 13.074,-11.949 19.625,-29.668 19.625,-53.109 0,-24.129 -6.66,-41.45 -19.961,-51.93 -13.312,-10.4884 -27.968,-16.8712 -43.984,-19.1095 -3.156,-0.4492 -6.309,-0.8008 -9.469,-1.0313 -3.164,-0.2187 -6.316,-0.3281 -9.476,-0.3281 H 461.98 V 7.44141 H 398.379 V 231.398 h 109.609"
         style="fill:#393536;fill-opacity:1;fill-rule:nonzero;stroke:none"
         id="path16" />
      <path
         d="m 687.957,136.34 h 24.023 c 1.125,-0.219 2.2,-0.352 3.208,-0.352 1.015,0 1.972,0 2.878,0 7.668,0.461 14.657,2.223 20.981,5.25 6.308,3.051 9.469,9.313 9.469,18.782 0,8.91 -3.219,15.371 -9.645,19.378 -6.426,3.993 -14.605,5.993 -24.527,5.993 h -26.387 z m 36.195,95.058 c 0.68,-0.226 1.407,-0.347 2.2,-0.347 0.789,0 1.636,0 2.539,0 21.422,-0.449 41.043,-4.449 58.867,-12 17.812,-7.563 26.722,-22.942 26.722,-46.18 0,-18.531 -5.3,-31.922 -15.898,-40.18 -10.609,-8.242 -23.344,-13.621 -38.227,-16.089 21.872,-0.891 35.524,-8.313 40.926,-22.2036 5.422,-13.9101 8.914,-29.1093 10.496,-45.6093 0.219,-0.4493 0.34,-0.9571 0.34,-1.5078 0,-0.5704 0,-1.2032 0,-1.8594 0.668,-6.793 1.52,-13.5117 2.531,-20.1836 1.016,-6.6602 2.54,-12.8281 4.571,-18.46877 l -68.332,0.33203 c -1.582,3.62894 -2.66,8.09764 -3.215,13.41794 -0.57,5.3203 -0.969,11.0391 -1.184,17.1524 0,1.1367 -0.062,2.3164 -0.175,3.5586 -0.114,1.25 -0.168,2.4492 -0.168,3.5781 -0.903,11.7734 -2.989,22.6406 -6.258,32.6016 -3.266,9.9687 -10.883,14.9414 -22.836,14.9414 H 687.957 V 7.10156 H 624.355 V 231.398 h 99.797"
         style="fill:#393536;fill-opacity:1;fill-rule:nonzero;stroke:none"
         id="path18" />
      <path
         d="m 913.594,119.43 c 0,-18.731 4.336,-35.7112 13.019,-50.9183 8.688,-15.2304 22.164,-22.8398 40.426,-22.8398 16.016,0 28.199,6.0976 36.541,18.2695 8.34,12.168 12.52,30.5391 12.52,55.1286 0,19.41 -3.95,36.43 -11.84,51.09 -7.905,14.66 -21.092,21.988 -39.584,21.988 -18.047,0 -30.672,-7.378 -37.883,-22.148 -7.23,-14.77 -11.629,-31.07 -13.199,-48.891 0,-0.449 0,-0.847 0,-1.187 0,-0.332 0,-0.621 0,-0.852 z m -65.973,-2.379 c 1.356,30.23 9.418,57.558 24.195,82.039 14.766,24.469 46.512,36.699 95.223,36.699 1.133,0 2.316,0 3.559,0 1.23,0 2.535,0 3.882,0 26.84,-1.117 51.48,-9.519 73.93,-25.199 22.44,-15.668 33.65,-46.18 33.65,-91.52 0,-5.859 -0.34,-12.07 -1.01,-18.601 -0.68,-6.5393 -1.8,-13.0784 -3.38,-19.6174 -4.74,-19.6328 -15.06,-37.6133 -30.96,-53.9414 -15.9,-16.3711 -41.67,-24.53911 -77.296,-24.53911 -47.363,0 -78.988,11.37891 -94.894,34.16801 -15.899,22.7695 -24.75,47.9218 -26.555,75.4409 0,0.68 -0.055,1.411 -0.168,2.192 -0.121,0.797 -0.176,1.629 -0.176,2.539 v 0.34"
         style="fill:#393536;fill-opacity:1;fill-rule:nonzero;stroke:none"
         id="path20" />
      <path
         d="m 1275.91,231.398 v -46.007 h -95.07 v -51.43 h 87.62 V 90.332 h -87.62 V 7.44141 h -63.6 V 231.398 h 158.67"
         style="fill:#393536;fill-opacity:1;fill-rule:nonzero;stroke:none"
         id="path22" />
      <path
         d="M 1484.3,231.398 V 185.391 H 1377.05 V 141.07 h 99.8 V 95.0586 h -99.8 V 51.0898 H 1484.3 V 7.44141 H 1313.46 V 231.398 h 170.84"
         style="fill:#393536;fill-opacity:1;fill-rule:nonzero;stroke:none"
         id="path24" />
      <path
         d="m 1517.1,79.8281 h 62.92 c 0,-1.789 0.11,-3.7187 0.34,-5.7383 0.22,-2.039 0.68,-4.0703 1.36,-6.0781 1.57,-4.9804 4.84,-9.5508 9.8,-13.7031 4.97,-4.1992 12.63,-6.2578 23.01,-6.2578 10.82,0 19.17,2.1875 25.03,6.5781 5.86,4.4102 8.8,9.3125 8.8,14.7227 0,1.1172 -0.12,2.1992 -0.34,3.207 -0.23,1.0312 -0.56,1.9805 -1.01,2.8906 -1.81,4.7305 -5.59,9.1211 -11.34,13.1797 -5.75,4.0703 -13.7,6.8828 -23.85,8.4609 -34.05,7.2192 -57.28,15.5002 -69.69,24.8712 -12.4,9.348 -19.17,23.84 -20.3,43.469 0,0.449 -0.05,0.781 -0.16,1.011 -0.12,0.219 -0.17,0.547 -0.17,1.02 0,0.211 -0.12,0.559 -0.34,1.008 0,21.871 9.47,38.57 28.41,50.062 18.95,11.508 41.39,17.258 67.33,17.258 36.53,-1.117 60.67,-8.289 72.39,-21.48 11.72,-13.2 17.59,-29.489 17.59,-48.879 l -63.59,0.332 c 0,6.988 -2.38,12.75 -7.11,17.269 -4.74,4.5 -11.96,6.758 -21.65,6.758 -8.35,0 -14.95,-1.988 -19.79,-5.93 -4.85,-3.949 -7.39,-8.269 -7.62,-13.019 0,-0.231 0,-0.399 0,-0.508 0,-0.121 0,-0.281 0,-0.504 0,-0.226 0,-0.566 0,-1.027 0.46,-4.731 3.05,-9.129 7.79,-13.172 4.73,-4.078 11.27,-6.57 19.62,-7.438 4.74,-0.91 9.69,-1.82 14.88,-2.722 5.19,-0.91 10.49,-2.039 15.9,-3.391 17.14,-4.047 32.93,-10.707 47.36,-19.957 14.44,-9.262 21.66,-24.2421 21.66,-44.9921 0,-26.6172 -9.54,-45.7187 -28.59,-57.3398 -19.06,-11.60941 -42,-17.41801 -68.84,-17.41801 -32.93,0 -57.51,6.53907 -73.75,19.61721 -16.24,13.082 -24.93,32.2422 -26.05,57.5117 v 0.3281"
         style="fill:#393536;fill-opacity:1;fill-rule:nonzero;stroke:none"
         id="path26" />
      <path
         d="m 1747.82,79.8281 h 62.92 c 0,-1.789 0.11,-3.7187 0.34,-5.7383 0.22,-2.039 0.68,-4.0703 1.36,-6.0781 1.57,-4.9804 4.83,-9.5508 9.8,-13.7031 4.97,-4.1992 12.63,-6.2578 23,-6.2578 10.83,0 19.17,2.1875 25.04,6.5781 5.86,4.4102 8.8,9.3125 8.8,14.7227 0,1.1172 -0.12,2.1992 -0.34,3.207 -0.24,1.0312 -0.56,1.9805 -1.02,2.8906 -1.8,4.7305 -5.58,9.1211 -11.33,13.1797 -5.75,4.0703 -13.71,6.8828 -23.85,8.4609 -34.05,7.2192 -57.28,15.5002 -69.69,24.8712 -12.41,9.348 -19.17,23.84 -20.3,43.469 0,0.449 -0.05,0.781 -0.16,1.011 -0.12,0.219 -0.17,0.547 -0.17,1.02 0,0.211 -0.12,0.559 -0.34,1.008 0,21.871 9.47,38.57 28.41,50.062 18.95,11.508 41.38,17.258 67.33,17.258 36.53,-1.117 60.67,-8.289 72.39,-21.48 11.72,-13.2 17.59,-29.489 17.59,-48.879 l -63.6,0.332 c 0,6.988 -2.37,12.75 -7.1,17.269 -4.74,4.5 -11.96,6.758 -21.66,6.758 -8.34,0 -14.94,-1.988 -19.78,-5.93 -4.86,-3.949 -7.39,-8.269 -7.62,-13.019 0,-0.231 0,-0.399 0,-0.508 0,-0.121 0,-0.281 0,-0.504 0,-0.226 0,-0.566 0,-1.027 0.45,-4.731 3.05,-9.129 7.78,-13.172 4.74,-4.078 11.28,-6.57 19.62,-7.438 4.74,-0.91 9.7,-1.82 14.89,-2.722 5.19,-0.91 10.49,-2.039 15.9,-3.391 17.13,-4.047 32.93,-10.707 47.36,-19.957 14.44,-9.262 21.65,-24.2421 21.65,-44.9921 0,-26.6172 -9.53,-45.7187 -28.59,-57.3398 -19.05,-11.60941 -41.99,-17.41801 -68.83,-17.41801 -32.93,0 -57.51,6.53907 -73.75,19.61721 -16.24,13.082 -24.93,32.2422 -26.05,57.5117 v 0.3281"
         style="fill:#393536;fill-opacity:1;fill-rule:nonzero;stroke:none"
         id="path28" />
      <path
         d="M 2047.55,231.398 V 7.44141 h -63.61 V 231.398 h 63.61"
         style="fill:#393536;fill-opacity:1;fill-rule:nonzero;stroke:none"
         id="path30" />
      <path
         d="m 2146.66,119.43 c 0,-18.731 4.34,-35.7112 13.02,-50.9183 8.69,-15.2304 22.16,-22.8398 40.43,-22.8398 16.01,0 28.19,6.0976 36.54,18.2695 8.34,12.168 12.52,30.5391 12.52,55.1286 0,19.41 -3.96,36.43 -11.84,51.09 -7.9,14.66 -21.09,21.988 -39.59,21.988 -18.04,0 -30.67,-7.378 -37.88,-22.148 -7.23,-14.77 -11.63,-31.07 -13.2,-48.891 0,-0.449 0,-0.847 0,-1.187 0,-0.332 0,-0.621 0,-0.852 z m -65.97,-2.379 c 1.36,30.23 9.42,57.558 24.2,82.039 14.76,24.469 46.51,36.699 95.22,36.699 1.13,0 2.31,0 3.56,0 1.23,0 2.53,0 3.88,0 26.84,-1.117 51.48,-9.519 73.92,-25.199 22.44,-15.668 33.66,-46.18 33.66,-91.52 0,-5.859 -0.34,-12.07 -1.01,-18.601 -0.68,-6.5393 -1.81,-13.0784 -3.38,-19.6174 -4.74,-19.6328 -15.06,-37.6133 -30.96,-53.9414 -15.9,-16.3711 -41.67,-24.53911 -77.3,-24.53911 -47.36,0 -78.99,11.37891 -94.89,34.16801 -15.9,22.7695 -24.75,47.9218 -26.56,75.4409 0,0.68 -0.05,1.411 -0.17,2.192 -0.12,0.797 -0.17,1.629 -0.17,2.539 v 0.34"
         style="fill:#393536;fill-opacity:1;fill-rule:nonzero;stroke:none"
         id="path32" />
      <path
         d="M 2435.57,231.398 2511.34,65.6289 V 231.398 h 56.15 V 7.44141 H 2479.2 L 2403.43,175.59 V 7.44141 h -55.49 V 231.398 h 87.63"
         style="fill:#393536;fill-opacity:1;fill-rule:nonzero;stroke:none"
         id="path34" />
      <path
         d="m 2712.28,185.391 -29.09,-90.3324 h 55.82 z m 41.95,46.007 87.62,-223.95659 h -70.7 L 2756.6,48.3711 h -87.62 L 2653.76,7.44141 h -65.29 l 89.99,223.95659 h 75.77"
         style="fill:#393536;fill-opacity:1;fill-rule:nonzero;stroke:none"
         id="path36" />
      <path
         d="M 2933.52,231.059 V 53.1211 h 99.8 V 7.10156 H 2869.93 V 231.059 h 63.59"
         style="fill:#393536;fill-opacity:1;fill-rule:nonzero;stroke:none"
         id="path38" />
      <path
         d="m 3217.35,79.8281 h 62.92 c 0,-1.789 0.11,-3.7187 0.34,-5.7383 0.23,-2.039 0.68,-4.0703 1.35,-6.0781 1.58,-4.9804 4.85,-9.5508 9.82,-13.7031 4.96,-4.1992 12.62,-6.2578 22.99,-6.2578 10.83,0 19.17,2.1875 25.04,6.5781 5.86,4.4102 8.8,9.3125 8.8,14.7227 0,1.1172 -0.12,2.1992 -0.34,3.207 -0.23,1.0312 -0.56,1.9805 -1.02,2.8906 -1.8,4.7305 -5.57,9.1211 -11.33,13.1797 -5.75,4.0703 -13.7,6.8828 -23.85,8.4609 -34.05,7.2192 -57.29,15.5002 -69.69,24.8712 -12.4,9.348 -19.17,23.84 -20.3,43.469 0,0.449 -0.05,0.781 -0.17,1.011 -0.1,0.219 -0.15,0.547 -0.15,1.02 0,0.211 -0.13,0.559 -0.35,1.008 0,21.871 9.47,38.57 28.41,50.062 18.95,11.508 41.39,17.258 67.33,17.258 36.53,-1.117 60.66,-8.289 72.39,-21.48 11.72,-13.2 17.59,-29.489 17.59,-48.879 l -63.6,0.332 c 0,6.988 -2.37,12.75 -7.1,17.269 -4.73,4.5 -11.96,6.758 -21.66,6.758 -8.34,0 -14.94,-1.988 -19.78,-5.93 -4.85,-3.949 -7.39,-8.269 -7.62,-13.019 0,-0.231 0,-0.399 0,-0.508 0,-0.121 0,-0.281 0,-0.504 0,-0.226 0,-0.566 0,-1.027 0.45,-4.731 3.06,-9.129 7.79,-13.172 4.73,-4.078 11.27,-6.57 19.61,-7.438 4.74,-0.91 9.7,-1.82 14.89,-2.722 5.19,-0.91 10.5,-2.039 15.91,-3.391 17.12,-4.047 32.92,-10.707 47.36,-19.957 14.43,-9.262 21.64,-24.2421 21.64,-44.9921 0,-26.6172 -9.52,-45.7187 -28.58,-57.3398 -19.06,-11.60941 -42.01,-17.41801 -68.84,-17.41801 -32.93,0 -57.51,6.53907 -73.75,19.61721 -16.24,13.082 -24.92,32.2422 -26.05,57.5117 v 0.3281"
         style="fill:#393536;fill-opacity:1;fill-rule:nonzero;stroke:none"
         id="path40" />
      <path
         d="m 3511.33,119.43 c 0,-18.731 4.33,-35.7112 13.02,-50.9183 8.69,-15.2304 22.16,-22.8398 40.42,-22.8398 16.02,0 28.2,6.0976 36.55,18.2695 8.34,12.168 12.52,30.5391 12.52,55.1286 0,19.41 -3.96,36.43 -11.85,51.09 -7.9,14.66 -21.08,21.988 -39.58,21.988 -18.05,0 -30.67,-7.378 -37.89,-22.148 -7.22,-14.77 -11.62,-31.07 -13.19,-48.891 0,-0.449 0,-0.847 0,-1.187 0,-0.332 0,-0.621 0,-0.852 z m -65.97,-2.379 c 1.36,30.23 9.41,57.558 24.19,82.039 14.77,24.469 46.51,36.699 95.22,36.699 1.14,0 2.32,0 3.56,0 1.24,0 2.54,0 3.89,0 26.84,-1.117 51.48,-9.519 73.92,-25.199 22.44,-15.668 33.65,-46.18 33.65,-91.52 0,-5.859 -0.33,-12.07 -1,-18.601 -0.68,-6.5393 -1.81,-13.0784 -3.38,-19.6174 -4.74,-19.6328 -15.06,-37.6133 -30.96,-53.9414 -15.91,-16.3711 -41.67,-24.53911 -77.3,-24.53911 -47.37,0 -78.99,11.37891 -94.9,34.16801 -15.89,22.7695 -24.74,47.9218 -26.55,75.4409 0,0.68 -0.06,1.411 -0.16,2.192 -0.13,0.797 -0.18,1.629 -0.18,2.539 v 0.34"
         style="fill:#393536;fill-opacity:1;fill-rule:nonzero;stroke:none"
         id="path42" />
      <path
         d="M 3778.57,231.398 V 53.4492 h 99.81 V 7.44141 h -163.4 V 231.398 h 63.59"
         style="fill:#393536;fill-opacity:1;fill-rule:nonzero;stroke:none"
         id="path44" />
      <path
         d="M 3975.46,231.398 V 99.7891 c 0,-16.0078 3.33,-29.0391 9.98,-39.0703 6.65,-10.0274 17.87,-15.0469 33.66,-15.0469 18.5,0 30.84,5.1172 37.04,15.3984 6.2,10.2578 9.31,23.961 9.31,41.1017 v 129.226 h 63.59 V 92.6992 c 0,-27.0703 -8.57,-49.2773 -25.7,-66.6484 C 4086.19,8.67969 4058.12,0 4019.1,0 c -32.93,0 -59.03,8.57813 -78.31,25.7109 -19.29,17.1289 -28.93,38.5782 -28.93,64.2696 V 231.398 h 63.6"
         style="fill:#393536;fill-opacity:1;fill-rule:nonzero;stroke:none"
         id="path46" />
      <path
         d="m 4356.38,231.398 v -46.007 h -71.05 V 7.44141 h -60.89 V 185.391 h -70.37 v 46.007 h 202.31"
         style="fill:#393536;fill-opacity:1;fill-rule:nonzero;stroke:none"
         id="path48" />
      <path
         d="M 4443.66,231.398 V 7.44141 h -63.6 V 231.398 h 63.6"
         style="fill:#393536;fill-opacity:1;fill-rule:nonzero;stroke:none"
         id="path50" />
      <path
         d="m 4542.77,119.43 c 0,-18.731 4.35,-35.7112 13.03,-50.9183 8.68,-15.2304 22.16,-22.8398 40.43,-22.8398 16.01,0 28.19,6.0976 36.53,18.2695 8.34,12.168 12.52,30.5391 12.52,55.1286 0,19.41 -3.95,36.43 -11.83,51.09 -7.9,14.66 -21.1,21.988 -39.58,21.988 -18.06,0 -30.68,-7.378 -37.89,-22.148 -7.23,-14.77 -11.63,-31.07 -13.21,-48.891 0,-0.449 0,-0.847 0,-1.187 0,-0.332 0,-0.621 0,-0.852 z m -65.96,-2.379 c 1.35,30.23 9.41,57.558 24.19,82.039 14.76,24.469 46.52,36.699 95.23,36.699 1.12,0 2.3,0 3.55,0 1.23,0 2.54,0 3.89,0 26.84,-1.117 51.48,-9.519 73.93,-25.199 22.43,-15.668 33.65,-46.18 33.65,-91.52 0,-5.859 -0.34,-12.07 -1.02,-18.601 -0.67,-6.5393 -1.8,-13.0784 -3.38,-19.6174 C 4702.12,61.2188 4691.8,43.2383 4675.9,26.9102 4660,10.5391 4634.23,2.37109 4598.6,2.37109 c -47.36,0 -78.99,11.37891 -94.89,34.16801 -15.91,22.7695 -24.76,47.9218 -26.56,75.4409 0,0.68 -0.05,1.411 -0.17,2.192 -0.12,0.797 -0.17,1.629 -0.17,2.539 v 0.34"
         style="fill:#393536;fill-opacity:1;fill-rule:nonzero;stroke:none"
         id="path52" />
      <path
         d="M 4831.68,231.398 4907.46,65.6289 V 231.398 h 56.15 V 7.44141 h -88.29 L 4799.54,175.59 V 7.44141 h -55.48 V 231.398 h 87.62"
         style="fill:#393536;fill-opacity:1;fill-rule:nonzero;stroke:none"
         id="path54" />
      <path
         d="m 4999.14,79.8281 h 62.91 c 0,-1.789 0.12,-3.7187 0.34,-5.7383 0.23,-2.039 0.68,-4.0703 1.36,-6.0781 1.57,-4.9804 4.84,-9.5508 9.8,-13.7031 4.96,-4.1992 12.64,-6.2578 23.01,-6.2578 10.82,0 19.17,2.1875 25.04,6.5781 5.86,4.4102 8.8,9.3125 8.8,14.7227 0,1.1172 -0.13,2.1992 -0.34,3.207 -0.24,1.0312 -0.57,1.9805 -1.02,2.8906 -1.81,4.7305 -5.58,9.1211 -11.34,13.1797 -5.75,4.0703 -13.7,6.8828 -23.84,8.4609 -34.06,7.2192 -57.29,15.5002 -69.69,24.8712 -12.41,9.348 -19.17,23.84 -20.3,43.469 0,0.449 -0.06,0.781 -0.17,1.011 -0.12,0.219 -0.17,0.547 -0.17,1.02 0,0.211 -0.11,0.559 -0.34,1.008 0,21.871 9.47,38.57 28.42,50.062 18.94,11.508 41.38,17.258 67.32,17.258 36.54,-1.117 60.67,-8.289 72.4,-21.48 11.72,-13.2 17.58,-29.489 17.58,-48.879 l -63.59,0.332 c 0,6.988 -2.37,12.75 -7.11,17.269 -4.73,4.5 -11.96,6.758 -21.65,6.758 -8.35,0 -14.95,-1.988 -19.79,-5.93 -4.85,-3.949 -7.39,-8.269 -7.61,-13.019 0,-0.231 0,-0.399 0,-0.508 0,-0.121 0,-0.281 0,-0.504 0,-0.226 0,-0.566 0,-1.027 0.45,-4.731 3.05,-9.129 7.77,-13.172 4.75,-4.078 11.28,-6.57 19.63,-7.438 4.74,-0.91 9.69,-1.82 14.88,-2.722 5.19,-0.91 10.49,-2.039 15.9,-3.391 17.14,-4.047 32.93,-10.707 47.37,-19.957 14.43,-9.262 21.65,-24.2421 21.65,-44.9921 0,-26.6172 -9.54,-45.7187 -28.59,-57.3398 -19.06,-11.60941 -42,-17.41801 -68.84,-17.41801 -32.94,0 -57.51,6.53907 -73.75,19.61721 -16.24,13.082 -24.93,32.2422 -26.04,57.5117 v 0.3281"
         style="fill:#393536;fill-opacity:1;fill-rule:nonzero;stroke:none"
         id="path56" />
    </g>
  </g>
</svg>
